<svg height="511pt" viewBox="-55 1 511 511.999" width="511pt" xmlns="http://www.w3.org/2000/svg"><path d="m87.429688 511.652344 54.199218-54.203125 59.507813 54.550781 59.507812-54.550781 54.203125 54.203125h86.929688l-119.917969-361.753906h24.207031v-44.96875c0-57.859376-47.070312-104.929688-104.929687-104.929688-57.855469 0-104.925781 47.070312-104.925781 104.929688v44.96875h24.207031l-119.917969 361.753906zm-12.417969-29.980469h-32.988281l30.144531-90.9375h62.859375l-7.664063 38.585937zm143.800781-180.875 11.910156 59.957031h-59.171875l11.910157-59.957031zm-29.394531-29.980469 11.71875-58.984375 11.71875 58.984375zm130.753906 89.9375h-58.878906l-11.914063-59.957031h50.917969zm-179.1875 0h-58.878906l19.875-59.957031h50.917969zm16.542969 70.597656 8.066406-40.617187h71.085938l8.070312 40.617187-43.613281 39.980469zm169.738281 50.320313-52.351563-52.351563-7.667968-38.585937h62.863281l30.144531 90.9375zm-36.910156-210.855469h-46.933594l-24.023437-120.917968h30.875zm-164.167969-165.886718c0-41.328126 33.625-74.949219 74.949219-74.949219 41.328125 0 74.949219 33.621093 74.949219 74.949219v14.988281h-149.898438zm56.691406 44.96875-24.023437 120.917968h-46.9375l40.085937-120.917968zm0 0"/></svg>